<?xml version="1.0" encoding="UTF-8"?>
<!-- Generator: Adobe Illustrator 19.0.0, SVG Export Plug-In . SVG Version: 6.00 Build 0)  -->
<svg width="500" height="200" version="1.1" viewBox="0 0 7500 3e3" xml:space="preserve" xmlns="http://www.w3.org/2000/svg" xmlns:cc="http://creativecommons.org/ns#" xmlns:dc="http://purl.org/dc/elements/1.1/" xmlns:rdf="http://www.w3.org/1999/02/22-rdf-syntax-ns#">
  <title>UZDoom Logo - Banner</title>
  <style type="text/css">
    .st0 {
      fill-rule: evenodd;
      clip-rule: evenodd;
    }
  </style>
  <defs>
    <clipPath id="clipPath10">
      <path d="m2418.2 651.8h557.23v-490.64h-557.23z" />
    </clipPath>
    <clipPath id="clipPath11">
      <path d="m341.61 198.08h5316.8v927.26h-5316.8z" />
    </clipPath>
    <clipPath id="clipPath14">
      <path d="m3030.1 651.8h557.23v-490.64h-557.23z" />
    </clipPath>
    <clipPath id="clipPath15">
      <path d="m341.61 198.08h5316.8v927.26h-5316.8z" />
    </clipPath>
    <clipPath id="clipPath18">
      <path d="m1726.2 846.44h642.99v-685.28h-642.99z" />
    </clipPath>
    <clipPath id="clipPath19">
      <path d="m341.61 198.08h5316.8v927.26h-5316.8z" />
    </clipPath>
    <clipPath id="clipPath20">
      <path d="m-1707.5-4.025e-4h3987.6v-695.44h-3987.6z" />
    </clipPath>
    <clipPath id="clipPath23">
      <path d="m3660.3 646.38h578.47v-485.39h-578.47z" />
    </clipPath>
    <clipPath id="clipPath24">
      <path d="m341.61 198.08h5316.8v927.26h-5316.8z" />
    </clipPath>
    <clipPath id="clipPath25">
      <path d="m-3987.6 200.06h3987.6v-695.44h-3987.6z" />
    </clipPath>
    <clipPath id="clipPath28">
      <path d="m261.21 845.6h638.01v-684.44h-638.01z" />
    </clipPath>
    <clipPath id="clipPath29">
      <path d="m341.61 198.08h5316.8v927.26h-5316.8z" />
    </clipPath>
    <clipPath id="clipPath30">
      <path d="m-648.02 0.8431h3987.6v-695.44h-3987.6z" />
    </clipPath>
    <clipPath id="clipPath33">
      <path d="m941.11 846.44h707.42v-685.28h-707.42z" />
    </clipPath>
    <clipPath id="clipPath34">
      <path d="m341.61 198.08h5316.8v927.26h-5316.8z" />
    </clipPath>
    <clipPath id="clipPath35">
      <path d="m-1046.7 469.29h3987.6v-695.44h-3987.6z" />
    </clipPath>
    <clipPath id="clipPath36">
      <path d="m341.61 198.08h5316.8v927.26h-5316.8z" />
    </clipPath>
    <clipPath id="clipPath49">
      <path d="m0 0h6e3v1333.3h-6e3z" />
    </clipPath>
  </defs>
  <g transform="translate(4686.7)" stroke="#000">
    <path id="XMLID_25_" class="st0" d="m-2922.4 2622.9-847.96-489.42v-1761.3l643.5 371.49v255.37l-231.44-133.94v912.46l-325.17 237.83 356.83-144.82 404.15 233.24 404.15-233.24 356.83 144.82-325.17-237.83v-912.46l-231.44 133.94v-255.37l643.5-371.49v1761.3l-847.78 489.42m204.46-1513.4 168.03-96.876v765.03l-372.48 215.79-372.39-215.79v-765.03l168.03 96.876v613.28l204.28 117.83 204.46-117.83v-613.28z" stroke-width=".8995" />
    <path d="m1584.1 1968.1-78.379 116.05-77.814-116.05h-20.226v169.54h19.665v-138.02l72.478 107.22h12.361l72.196-107.22v138.02h19.665v-169.54zm-266.04 110.56c-3.3711 8.4393-8.2867 16.039-14.749 22.804-6.46 6.7677-14.233 12.178-23.315 16.238-9.0866 4.06-19.341 6.0879-30.76 6.0879-10.865 0-20.837-1.9469-29.919-5.8498-9.0867-3.8983-16.904-9.1514-23.457-15.76-6.5571-6.6034-11.614-14.166-15.17-22.684-3.5606-8.5156-5.3385-17.392-5.3385-26.624 0-8.7537 1.7294-17.35 5.1976-25.79 3.4635-8.437 8.4277-16.037 14.888-22.804 6.4624-6.763 14.231-12.136 23.318-16.118 9.082-3.9768 19.244-5.9698 30.481-5.9698 10.858 0 20.788 1.9098 29.778 5.7317 8.9896 3.8197 16.807 9.0728 23.457 15.76 6.645 6.6866 11.75 14.25 15.311 22.684 3.5539 8.4393 5.3365 17.274 5.3365 26.506 0 8.7559-1.6855 17.352-5.0566 25.787m-0.9827-84.529c-8.1456-8.2751-17.935-14.883-29.357-19.82-11.424-4.9318-24.159-7.4011-38.206-7.4011-13.3 0-25.66 2.349-37.082 7.0427-11.424 4.6982-21.399 11.066-29.919 19.103-8.5224 8.0416-15.126 17.193-19.803 27.461-4.6843 10.268-7.0242 21.054-7.0242 32.356 0 10.828 2.2474 21.371 6.7422 31.639 4.4948 10.266 10.86 19.5 19.103 27.697 8.2404 8.201 18.072 14.686 29.498 19.461 11.42 4.7767 24.159 7.1652 38.206 7.1652 13.295 0 25.655-2.3075 37.082-6.9249 11.42-4.6149 21.35-10.943 29.778-18.985 8.4277-8.0346 14.98-17.191 19.665-27.459 4.6775-10.268 7.022-21.052 7.022-32.356 0-10.664-2.2473-21.091-6.7421-31.281-4.4948-10.185-10.816-19.419-18.962-27.699m-237.8 84.529c-3.371 8.4393-8.2865 16.039-14.749 22.804-6.46 6.7677-14.233 12.178-23.315 16.238-9.0866 4.06-19.341 6.0879-30.763 6.0879-10.862 0-20.835-1.9469-29.917-5.8498-9.0866-3.8983-16.904-9.1514-23.459-15.76-6.5573-6.6034-11.614-14.166-15.17-22.684-3.5584-8.5156-5.3365-17.392-5.3365-26.624 0-8.7537 1.7296-17.35 5.1978-25.79 3.4635-8.437 8.4277-16.037 14.888-22.804 6.4624-6.763 14.231-12.136 23.318-16.118 9.082-3.9768 19.242-5.9698 30.478-5.9698 10.86 0 20.788 1.9098 29.778 5.7317 8.9895 3.8197 16.809 9.0728 23.459 15.76 6.645 6.6866 11.75 14.25 15.309 22.684 3.5559 8.4393 5.3385 17.274 5.3385 26.506 0 8.7559-1.6855 17.352-5.0566 25.787m-0.9825-84.529c-8.148-8.2751-17.935-14.883-29.357-19.82-11.426-4.9318-24.159-7.4011-38.206-7.4011-13.299 0-25.66 2.349-37.082 7.0427-11.426 4.6982-21.399 11.066-29.919 19.103-8.5248 8.0416-15.126 17.193-19.806 27.461-4.682 10.268-7.022 21.054-7.022 32.356 0 10.828 2.2474 21.371 6.7421 31.639 4.4948 10.266 10.86 19.5 19.103 27.697 8.2382 8.201 18.072 14.686 29.496 19.461 11.422 4.7767 24.159 7.1652 38.206 7.1652 13.297 0 25.658-2.3075 37.082-6.9249 11.422-4.6149 21.35-10.943 29.778-18.985 8.4277-8.0346 14.983-17.191 19.665-27.459 4.6797-10.268 7.0242-21.052 7.0242-32.356 0-10.664-2.2474-21.091-6.7422-31.281-4.4948-10.185-10.816-19.419-18.962-27.699m-243.15 94.201c-5.8081 10.589-14.328 18.982-25.565 25.19-11.237 6.2105-25.098 9.3133-41.577 9.3133h-48.037v-139.93h48.037c16.294 0 30.06 2.9849 41.297 8.9549s19.806 14.208 25.704 24.714c5.8983 10.506 8.8485 22.527 8.8485 36.055 0 13.216-2.9063 25.114-8.7074 35.699m-14.187-108.88c-14.143-7.5607-31.792-11.343-52.954-11.343h-67.701v169.54h67.701c19.477 0 36.379-3.4982 50.707-10.506 14.328-7.0035 25.376-16.872 33.149-29.609 7.7687-12.733 11.658-27.699 11.658-44.892 0-15.598-3.5583-29.806-10.675-42.622-7.119-12.814-17.746-23.001-31.884-30.564m-339.38 3.4612h133.44l-135.69 141.6v13.133h158.16v-14.804h-133.72l134-141.6v-13.133h-156.19zm-251.76 75.218h97.479v-14.09h-97.479v-61.128h111.81v-14.804h-131.47v169.54h134v-14.804h-114.33zm-239.18-75.218h71.072v154.73h19.665v-154.73h71.075v-14.804h-161.81zm-148.52 88.589 39.408-83.812 39.408 83.812zm31.262-103.39-83.435 169.54h21.07l24.927-53.01h91.172l24.925 53.01h20.788l-82.873-169.54zm-238.46 116.05-77.817-116.05h-20.226v169.54h19.665v-138.02l72.478 107.22h12.361l72.198-107.22v138.02h19.665v-169.54h-19.947zm-195 53.486h19.665v-169.54h-19.665zm-219.51-154.73h71.072v154.73h19.665v-154.73h71.075v-14.804h-161.81zm-119.9-14.804h-19.665v169.54h134.84v-14.804h-115.18zm-114.73 85.484c0 8.5964-1.0312 17.075-3.089 25.431-2.0647 8.3583-5.4797 15.88-10.254 22.566-4.7768 6.6844-11.334 12.058-19.665 16.118-8.3352 4.06-18.872 6.0879-31.604 6.0879-12.361 0-22.664-1.9469-30.902-5.8498-8.2427-3.8983-14.798-9.193-19.665-15.88-4.8716-6.6845-8.3837-14.245-10.534-22.684-2.1549-8.4347-3.23-17.031-3.23-25.79v-85.484h-19.385v85.484c0 10.828 1.4497 21.334 4.3537 31.521 2.9017 10.19 7.5376 19.304 13.908 27.341 6.3629 8.0392 14.98 14.446 25.845 19.221 10.858 4.7767 24.159 7.1652 39.889 7.1652 15.355 0 28.374-2.3075 39.049-6.9249 10.675-4.6149 19.336-10.825 25.986-18.626 6.645-7.7965 11.468-16.872 14.467-27.221 2.9942-10.347 4.4948-21.17 4.4948-32.476v-85.484h-19.665z" stroke-width="2.3121" />
    <g transform="matrix(.62753 0 0 .62753 -1662 1077.5)" clip-path="url(#clipPath49)">
      <g clip-path="url(#clipPath36)" stroke="#000">
        <g clip-path="url(#clipPath11)">
          <path transform="matrix(1.3333 0 0 -1.3333 0 1333.3)" d="m2697.9 557.07c-93.281 0-163.62-65.807-163.62-153.07 0-87.612 69.5-153.68 161.66-153.68l1.284 4e-3c92.846 0 162.89 66.067 162.89 153.68 0 87.267-69.736 153.07-162.21 153.07m-0.709-395.9c-37.282 0-73.634 6.515-108.05 19.362-33.17 12.384-63.048 30.058-88.806 52.533-25.712 22.434-45.921 48.434-60.063 77.276-14.632 29.839-22.051 61.35-22.051 93.658 0 32.331 7.459 64.082 22.17 94.368 14.238 29.315 34.54 55.85 60.341 78.868 25.908 23.114 55.874 41.35 89.064 54.201 34.54 13.374 70.917 20.229 108.12 20.373 77.985 0 153.42-30.861 206.95-84.67 45.828-46.069 70.894-104 70.584-163.11 0-32.37-7.351-63.885-21.848-93.7-14.034-28.864-34.106-54.861-59.656-77.27-52.856-46.357-122.73-71.886-196.76-71.886" clip-path="url(#clipPath10)" stroke="#000" />
        </g>
        <path transform="matrix(1.3333 0 0 -1.3333 3594.6 992.92)" d="m0 0c-89.313 0-156.66 64.202-156.66 148.68 0 84.27 67.981 148.08 158.62 148.08 89.934 0 157.21-63.805 157.21-148.08 0-84.87-67.276-148.68-157.92-148.68-0.417-3e-3 -0.834-4e-3 -1.251-4e-3m1.96 401.49c-155.08-0.602-284.68-117.38-284.68-252.81s128.88-247.83 283.97-247.83c155.8 0 283.26 112.4 283.26 247.83 0.709 134.83-127.46 252.81-282.55 252.81m-1.96-411.49c0.429 0 0.858 1e-3 1.288 4e-3 95.712 0.017 167.88 68.227 167.88 158.68 0 90.118-71.885 158.08-167.21 158.08-96.131 0-168.62-67.957-168.62-158.08 0-90.462 71.65-158.68 166.66-158.68m1.974 401.49c76.678-4e-3 150.82-30.327 203.41-83.196 44.882-45.119 69.433-101.79 69.129-159.56v-0.053c0-31.578-7.181-62.359-21.344-91.486-13.742-28.261-33.41-53.73-58.457-75.697-25.175-22.08-54.438-39.441-86.975-51.6-33.816-12.637-69.643-19.045-106.48-19.045-36.683 0-72.447 6.408-106.3 19.046-32.604 12.173-61.965 29.539-87.267 51.616-25.209 21.995-45.013 47.468-58.862 75.71-14.292 29.148-21.539 59.918-21.539 91.456 0 31.569 7.289 62.584 21.667 92.185 13.952 28.725 33.86 54.739 59.171 77.321 25.46 22.713 54.913 40.636 87.542 53.269 33.96 13.15 69.728 19.891 106.31 20.036" />
        <g clip-path="url(#clipPath15)">
          <path transform="matrix(1.3333 0 0 -1.3333 0 1333.3)" d="m3309.7 557.07c-93.281 0-163.62-65.807-163.62-153.07 0-87.612 69.5-153.68 161.66-153.68l1.285 4e-3c92.845 0 162.88 66.067 162.88 153.68 0 87.267-69.735 153.07-162.21 153.07m-0.709-395.9c-37.282 0-73.633 6.515-108.05 19.362-33.17 12.384-63.048 30.058-88.806 52.533-25.712 22.434-45.921 48.434-60.064 77.276-14.631 29.839-22.05 61.35-22.05 93.658 0 32.331 7.459 64.082 22.17 94.368 14.238 29.315 34.54 55.85 60.34 78.868 25.909 23.114 55.874 41.35 89.065 54.201 34.54 13.374 70.917 20.229 108.12 20.373 77.985 0 153.42-30.861 206.95-84.67 45.828-46.07 70.895-104 70.584-163.11 0-32.37-7.35-63.885-21.848-93.7-14.035-28.864-34.106-54.861-59.656-77.27-52.855-46.357-122.73-71.886-196.76-71.886" clip-path="url(#clipPath14)" stroke="#000" />
        </g>
        <path transform="matrix(1.3333 0 0 -1.3333 4410.4 992.92)" d="m0 0c-89.313 0-156.66 64.202-156.66 148.68 0 84.27 67.981 148.08 158.62 148.08 89.935 0 157.21-63.805 157.21-148.08 0-84.87-67.275-148.68-157.92-148.68-0.418-3e-3 -0.835-4e-3 -1.251-4e-3m1.959 401.49c-155.08-0.602-284.68-117.38-284.68-252.81s128.88-247.83 283.97-247.83c155.8 0 283.26 112.4 283.26 247.83 0.709 134.83-127.47 252.81-282.55 252.81m-1.959-411.49c0.428 0 0.858 1e-3 1.288 4e-3 95.712 0.017 167.88 68.227 167.88 158.68 0 90.118-71.884 158.08-167.21 158.08-96.131 0-168.62-67.957-168.62-158.08 0-90.462 71.651-158.68 166.66-158.68m1.973 401.49c76.678-4e-3 150.82-30.327 203.41-83.196 44.882-45.119 69.433-101.79 69.129-159.56v-0.053c0-31.578-7.181-62.359-21.344-91.486-13.742-28.261-33.41-53.73-58.457-75.697-25.176-22.08-54.438-39.441-86.975-51.6-33.817-12.637-69.643-19.045-106.48-19.045-36.683 0-72.447 6.408-106.3 19.046-32.604 12.173-61.965 29.539-87.267 51.616-25.209 21.995-45.013 47.468-58.862 75.71-14.293 29.148-21.54 59.918-21.54 91.456 0 31.569 7.29 62.584 21.667 92.185 13.952 28.725 33.861 54.739 59.172 77.321 25.459 22.713 54.912 40.636 87.541 53.269 33.961 13.15 69.729 19.891 106.31 20.036" />
        <g clip-path="url(#clipPath19)">
          <path transform="matrix(1.3333 0 0 -1.3333 0 1333.3)" d="m1726.2 161.16v215.98h156.98v-94.195h5c50.769 0 101.01 2.774 153.6 8.478l0.127 0.013 0.126 0.021c103.74 16.637 163.23 93.878 163.23 211.92 0 118.04-59.496 195.28-163.23 211.91l-0.164 0.024c-48.927 6.193-100.64 9.333-153.69 9.333h-5v-230.84h-156.98v351.81l237.53 0.826c29.791 0 59.357-1.693 87.857-5.033 85.992-9.34 165.9-48.74 225.06-110.95 59.679-62.759 92.546-143.1 92.546-226.24 0-83.62-32.736-164.23-92.179-226.98-58.994-62.277-139.03-101.71-225.38-111.04-28.545-3.345-58.446-5.038-88.915-5.038z" clip-path="url(#clipPath18)" stroke="#000" />
        </g>
        <path transform="matrix(1.3333 0 0 -1.3333 2618.3 198.08)" d="m0 0-242.51-0.844v-361.79h166.98v230.85c55.658 0 106.35-3.381 153.06-9.294 105.35-16.896 159.02-95.464 159.02-206.98 0-111.52-53.671-190.08-159.02-206.98-46.713-5.067-97.401-8.448-153.06-8.448v94.195h-166.98v-225.98h241.52c30.812 0 60.627 1.689 89.452 5.068 179.89 19.431 322.02 166.43 322.02 342.99 0 175.72-143.12 322.72-322.02 342.15-28.825 3.379-58.64 5.068-88.457 5.068m3e-3 -10c29.617 0 58.987-1.682 87.29-5l0.042-5e-3 0.042-4e-3c84.775-9.208 163.59-48.066 221.93-109.42 58.791-61.825 91.169-140.95 91.169-222.79 0-82.335-32.25-161.72-90.809-223.54-58.178-61.417-137.12-100.31-222.28-109.51l-0.09-0.01c-28.305-3.318-58.01-5-88.288-5h-231.52v205.98h146.98v-94.195h10c50.954 0 101.37 2.782 154.14 8.506l0.254 0.028 0.252 0.04c106.41 17.066 167.44 96.107 167.44 216.85 0 120.75-61.03 199.79-167.44 216.85l-0.164 0.026-0.164 0.021c-49.132 6.219-101.05 9.373-154.32 9.373h-10v-230.85h-146.98v341.83l232.51 0.809" clip-path="url(#clipPath20)" />
        <g clip-path="url(#clipPath24)">
          <path transform="matrix(1.3333 0 0 -1.3333 0 1333.3)" d="m4130.5 161-0.749 303.98-149.68-302.17h-61.062l-148.93 302.16-1.495-303.96h-108.29v485.39h134.92l154.7-318.9 153.25 318.9h135.61v-485.39z" clip-path="url(#clipPath23)" stroke="#000" />
        </g>
        <path transform="matrix(1.3333 0 0 -1.3333 5658.4 464.82)" d="m0 0h-143.76l-150.13-312.4-151.54 312.4h-143.05v-495.39h118.26l1.414 287.72 140.92-285.92h67.276l141.63 285.92 0.709-287.72h118.26zm-10-10v-475.39h-98.285l-0.685 277.75-0.104 42.48-18.857-38.066-138.87-280.36h-54.85l-156.93 318.4-0.209-42.436-1.365-277.77h-98.31v475.39h126.78l148.81-306.76 9.04-18.635 156.38 325.4z" clip-path="url(#clipPath25)" />
        <g clip-path="url(#clipPath29)">
          <path transform="matrix(1.3333 0 0 -1.3333 0 1333.3)" d="m580.22 161.16c-90.249 0.415-166.88 22.523-221.6 63.933-27.292 20.648-49.157 46.019-64.989 75.406-16.179 30.031-26.089 64.332-29.456 101.95-1.996 18.668-2.961 37.008-2.961 56.155l0.981 386.99h156.97l-0.981-392.89c0-112.08 54.516-168.91 162.04-168.91 52.362 0 92.585 13.793 119.55 40.997 28.023 28.268 41.981 71.313 41.488 127.94l0.981 392.86h156.98l-0.982-386.98c0-19.168-0.966-37.509-2.953-56.081-3.38-37.742-13.24-72.087-29.317-102.17-15.759-29.485-37.512-54.922-64.653-75.601-54.611-41.611-131.06-63.605-221.09-63.605z" clip-path="url(#clipPath28)" stroke="#000" />
        </g>
        <path transform="matrix(1.3333 0 0 -1.3333 1205.6 199.2)" d="m0 0h-166.98l-0.994-397.91c0.994-114.05-56.651-163.89-156.04-163.89-100.38 0-157.04 49.844-157.04 163.89l0.994 397.91h-166.97l-0.994-391.99c0-19.43 0.994-38.016 2.981-56.601 13.915-155.45 136.16-245 321.03-245.84 184.86 0 306.12 90.394 320.03 245.84 1.989 18.585 2.982 37.171 2.982 56.601zm-10.025-10-0.969-381.99c0-18.972-0.957-37.139-2.925-55.537l-9e-3 -0.086-8e-3 -0.087c-3.311-36.983-12.98-70.685-28.738-100.17-15.419-28.848-36.707-53.739-63.273-73.981-26.607-20.272-58.506-35.892-94.811-46.425-36.953-10.721-78.421-16.157-123.21-16.157-44.899 0.206-86.434 5.761-123.45 16.513-36.454 10.588-68.478 26.202-95.183 46.407-26.715 20.213-48.114 45.04-63.603 73.791-15.856 29.431-25.572 63.083-28.878 100.02l-8e-3 0.086-9e-3 0.086c-1.968 18.403-2.925 36.569-2.925 55.512l0.969 382.02h146.97l-0.969-387.91c0-115.39 56.199-173.89 167.04-173.89 53.745 0 95.163 14.291 123.1 42.477 28.987 29.241 43.434 73.464 42.937 131.45l0.969 387.88h146.98" clip-path="url(#clipPath30)" />
        <g clip-path="url(#clipPath34)">
          <path transform="matrix(1.3333 0 0 -1.3333 0 1333.3)" d="m1192.6 493.81 175.84 232.53h-364.84v120.1h644.88l-267.28-352.63zm-251.54-332.64 163.32 215.98h188.4l-72.674-95.883h399.64v-120.1z" clip-path="url(#clipPath33)" stroke="#000" />
        </g>
        <path transform="matrix(1.3333 0 0 -1.3333 1737.2 823.8)" d="m0 0h-200.95l-170.88-225.98h693.74v130.1h-394.58zm355.7 469.29h-659.95v-130.1h359.79l-175.84-232.54h201.14zm-375.82-479.29-60.517-79.844-12.157-16.04h404.7v-110.1h-663.64l155.76 205.98h175.85m355.7 469.29-259.7-342.64h-176.07l163.72 216.5 12.123 16.032h-369.89v110.1z" clip-path="url(#clipPath35)" />
      </g>
    </g>
  </g>
  <metadata>
    <rdf:RDF>
      <cc:Work rdf:about="">
        <cc:license rdf:resource="http://creativecommons.org/licenses/by-sa/4.0/" />
        <dc:creator>
          <cc:Agent>
            <dc:title>Cardboard Marty</dc:title>
          </cc:Agent>
        </dc:creator>
        <dc:date>2025</dc:date>
        <dc:rights>
          <cc:Agent>
            <dc:title>UZDoom</dc:title>
          </cc:Agent>
        </dc:rights>
        <dc:title>UZDoom Logo - Banner</dc:title>
      </cc:Work>
      <cc:License rdf:about="http://creativecommons.org/licenses/by-sa/4.0/">
        <cc:permits rdf:resource="http://creativecommons.org/ns#Reproduction" />
        <cc:permits rdf:resource="http://creativecommons.org/ns#Distribution" />
        <cc:requires rdf:resource="http://creativecommons.org/ns#Notice" />
        <cc:requires rdf:resource="http://creativecommons.org/ns#Attribution" />
        <cc:permits rdf:resource="http://creativecommons.org/ns#DerivativeWorks" />
        <cc:requires rdf:resource="http://creativecommons.org/ns#ShareAlike" />
      </cc:License>
    </rdf:RDF>
  </metadata>
</svg>
